<svg fill="#000000" height="15px" width="15px" version="1.1" xmlns="http://www.w3.org/2000/svg"
  viewBox="0 0 512 512" xmlns:xlink="http://www.w3.org/1999/xlink"
  enable-background="new 0 0 512 512">
  <g id="SVGRepo_bgCarrier" stroke-width="0"></g>
  <g id="SVGRepo_tracerCarrier" stroke-linecap="round" stroke-linejoin="round"></g>
  <g id="SVGRepo_iconCarrier">
    <g>
      <path
        d="m224,240h64c17.672,0 32-14.328 32-32v-96c0-17.672-14.328-32-32-32h-64c-17.672,0-32,14.328-32,32v96c0,17.672 14.328,32 32,32z"></path>
      <path
        d="m480,336c0-89.131-52.454-166.039-128-202.078v74.078c0,35.289-28.71,64-64,64h-64c-35.29,0-64-28.711-64-64v-74.078c-75.546,36.039-128,112.947-128,202.078-17.672,0-32,14.328-32,32v32c0,17.672 14.328,32 32,32h448c17.672,0 32-14.328 32-32v-32c0-17.672-14.328-32-32-32z"></path>
    </g>
  </g>
</svg>