<?xml version="1.0" encoding="UTF-8" standalone="no"?><!-- Generator: Gravit.io --><svg xmlns="http://www.w3.org/2000/svg" xmlns:xlink="http://www.w3.org/1999/xlink" style="isolation:isolate" viewBox="0 0 800 990" width="800pt" height="990pt"><defs><clipPath id="_clipPath_IKaQiIs99l95YAiM0jx8ePTRjXP0k58f"><rect width="800" height="990"/></clipPath></defs><g clip-path="url(#_clipPath_IKaQiIs99l95YAiM0jx8ePTRjXP0k58f)"><g><mask id="_mask_wR0jhpRihizXrMl6TTCvMX2qnQi8bN9N" x="-200%" y="-200%" width="400%" height="400%"><rect x="-200%" y="-200%" width="400%" height="400%" style="fill:white;"/><path d=" M 480.522 807.153 L 276.386 807.153 C 267.719 807.153 257.347 800.957 253.238 793.327 L 232.491 754.797 C 225.301 741.443 219.463 718.288 219.463 703.122 L 219.463 569.648 L 502.113 569.648 L 503.882 783.599 C 503.989 796.599 493.522 807.153 480.522 807.153 Z " fill="black" stroke="none"/></mask><path d=" M 480.522 807.153 L 276.386 807.153 C 267.719 807.153 257.347 800.957 253.238 793.327 L 232.491 754.797 C 225.301 741.443 219.463 718.288 219.463 703.122 L 219.463 569.648 L 502.113 569.648 L 503.882 783.599 C 503.989 796.599 493.522 807.153 480.522 807.153 Z " fill="rgb(0,0,0)"/><path d=" M 480.522 807.153 L 276.386 807.153 C 267.719 807.153 257.347 800.957 253.238 793.327 L 232.491 754.797 C 225.301 741.443 219.463 718.288 219.463 703.122 L 219.463 569.648 L 502.113 569.648 L 503.882 783.599 C 503.989 796.599 493.522 807.153 480.522 807.153 Z " fill="rgb(0,0,0)" mask="url(#_mask_wR0jhpRihizXrMl6TTCvMX2qnQi8bN9N)" vector-effect="non-scaling-stroke" stroke-width="42" stroke="rgb(255,255,255)" stroke-linejoin="miter" stroke-linecap="square" stroke-miterlimit="3"/><mask id="_mask_NN70PXJ6tKEfF7tzrntHvXN3rkAHfrQf" x="-200%" y="-200%" width="400%" height="400%"><rect x="-200%" y="-200%" width="400%" height="400%" style="fill:white;"/><path d=" M 505.843 234 L 514.087 234 C 528.062 234 539.408 245.346 539.408 259.321 L 539.408 540.391 C 539.408 541.474 538.528 542.353 537.445 542.353 L 480.522 542.353 L 480.522 259.321 C 480.522 245.346 491.868 234 505.843 234 Z  M 421.054 408.694 L 453.042 408.694 L 453.042 540.205 C 453.042 554.288 441.608 565.722 427.525 565.722 L 419.674 565.722 C 405.59 565.722 394.157 554.288 394.157 540.205 L 394.157 435.591 C 394.157 420.746 406.209 408.694 421.054 408.694 Z  M 331.345 432.248 L 364.714 432.248 L 364.714 565.722 C 364.714 579.805 353.28 591.239 339.197 591.239 L 331.345 591.239 C 317.262 591.239 305.828 579.805 305.828 565.722 L 305.828 457.765 C 305.828 443.682 317.262 432.248 331.345 432.248 Z  M 243.017 458.747 L 276.386 458.747 L 276.386 587.313 C 276.386 601.397 264.952 612.83 250.868 612.83 L 243.017 612.83 C 228.934 612.83 217.5 601.397 217.5 587.313 L 217.5 484.264 C 217.5 470.18 228.934 458.747 243.017 458.747 Z " fill-rule="evenodd" fill="black" stroke="none"/></mask><path d=" M 505.843 234 L 514.087 234 C 528.062 234 539.408 245.346 539.408 259.321 L 539.408 540.391 C 539.408 541.474 538.528 542.353 537.445 542.353 L 480.522 542.353 L 480.522 259.321 C 480.522 245.346 491.868 234 505.843 234 Z  M 421.054 408.694 L 453.042 408.694 L 453.042 540.205 C 453.042 554.288 441.608 565.722 427.525 565.722 L 419.674 565.722 C 405.59 565.722 394.157 554.288 394.157 540.205 L 394.157 435.591 C 394.157 420.746 406.209 408.694 421.054 408.694 Z  M 331.345 432.248 L 364.714 432.248 L 364.714 565.722 C 364.714 579.805 353.28 591.239 339.197 591.239 L 331.345 591.239 C 317.262 591.239 305.828 579.805 305.828 565.722 L 305.828 457.765 C 305.828 443.682 317.262 432.248 331.345 432.248 Z  M 243.017 458.747 L 276.386 458.747 L 276.386 587.313 C 276.386 601.397 264.952 612.83 250.868 612.83 L 243.017 612.83 C 228.934 612.83 217.5 601.397 217.5 587.313 L 217.5 484.264 C 217.5 470.18 228.934 458.747 243.017 458.747 Z " fill-rule="evenodd" fill="rgb(0,0,0)"/><path d=" M 505.843 234 L 514.087 234 C 528.062 234 539.408 245.346 539.408 259.321 L 539.408 540.391 C 539.408 541.474 538.528 542.353 537.445 542.353 L 480.522 542.353 L 480.522 259.321 C 480.522 245.346 491.868 234 505.843 234 Z  M 421.054 408.694 L 453.042 408.694 L 453.042 540.205 C 453.042 554.288 441.608 565.722 427.525 565.722 L 419.674 565.722 C 405.59 565.722 394.157 554.288 394.157 540.205 L 394.157 435.591 C 394.157 420.746 406.209 408.694 421.054 408.694 Z  M 331.345 432.248 L 364.714 432.248 L 364.714 565.722 C 364.714 579.805 353.28 591.239 339.197 591.239 L 331.345 591.239 C 317.262 591.239 305.828 579.805 305.828 565.722 L 305.828 457.765 C 305.828 443.682 317.262 432.248 331.345 432.248 Z  M 243.017 458.747 L 276.386 458.747 L 276.386 587.313 C 276.386 601.397 264.952 612.83 250.868 612.83 L 243.017 612.83 C 228.934 612.83 217.5 601.397 217.5 587.313 L 217.5 484.264 C 217.5 470.18 228.934 458.747 243.017 458.747 Z " fill-rule="evenodd" fill="rgb(0,0,0)" mask="url(#_mask_NN70PXJ6tKEfF7tzrntHvXN3rkAHfrQf)" vector-effect="non-scaling-stroke" stroke-width="42" stroke="rgb(255,255,255)" stroke-linejoin="miter" stroke-linecap="square" stroke-miterlimit="3"/><mask id="_mask_nIkNmAEZUS7sv9b0KhRLKWSMWO2pTgMZ" x="-200%" y="-200%" width="400%" height="400%"><rect x="-200%" y="-200%" width="400%" height="400%" style="fill:white;"/><path d=" M 400.409 545.375 L 395.802 562.776 C 391.644 578.485 401.093 594.335 416.889 598.147 L 496.389 617.337 C 499.549 618.1 501.279 621.222 500.251 624.305 L 488.374 659.939 L 460.072 666.542 C 443.192 670.481 419.537 683.629 407.281 695.886 L 386.445 716.722 C 378.784 724.382 372.565 739.397 372.565 750.23 L 372.565 807.153 L 482.485 807.153 C 493.318 807.153 508.014 800.631 515.283 792.597 L 531.506 774.666 C 535.867 769.846 540.725 760.823 542.347 754.528 L 581.621 602.146 C 585.406 587.46 576.62 572.221 562.014 568.137 L 426.728 530.315 C 415.251 527.107 403.458 533.855 400.409 545.375 Z " fill="black" stroke="none"/></mask><path d=" M 400.409 545.375 L 395.802 562.776 C 391.644 578.485 401.093 594.335 416.889 598.147 L 496.389 617.337 C 499.549 618.1 501.279 621.222 500.251 624.305 L 488.374 659.939 L 460.072 666.542 C 443.192 670.481 419.537 683.629 407.281 695.886 L 386.445 716.722 C 378.784 724.382 372.565 739.397 372.565 750.23 L 372.565 807.153 L 482.485 807.153 C 493.318 807.153 508.014 800.631 515.283 792.597 L 531.506 774.666 C 535.867 769.846 540.725 760.823 542.347 754.528 L 581.621 602.146 C 585.406 587.46 576.62 572.221 562.014 568.137 L 426.728 530.315 C 415.251 527.107 403.458 533.855 400.409 545.375 Z " fill="rgb(0,0,0)"/><path d=" M 400.409 545.375 L 395.802 562.776 C 391.644 578.485 401.093 594.335 416.889 598.147 L 496.389 617.337 C 499.549 618.1 501.279 621.222 500.251 624.305 L 488.374 659.939 L 460.072 666.542 C 443.192 670.481 419.537 683.629 407.281 695.886 L 386.445 716.722 C 378.784 724.382 372.565 739.397 372.565 750.23 L 372.565 807.153 L 482.485 807.153 C 493.318 807.153 508.014 800.631 515.283 792.597 L 531.506 774.666 C 535.867 769.846 540.725 760.823 542.347 754.528 L 581.621 602.146 C 585.406 587.46 576.62 572.221 562.014 568.137 L 426.728 530.315 C 415.251 527.107 403.458 533.855 400.409 545.375 Z " fill="rgb(0,0,0)" mask="url(#_mask_nIkNmAEZUS7sv9b0KhRLKWSMWO2pTgMZ)" vector-effect="non-scaling-stroke" stroke-width="42" stroke="rgb(255,255,255)" stroke-linejoin="miter" stroke-linecap="square" stroke-miterlimit="3"/></g></g></svg>